<svg width="18" height="18" viewBox="0 0 18 18" fill="none" xmlns="http://www.w3.org/2000/svg">
<g clip-path="url(#clip0_3114_231)">
<path d="M7.33496 7.15C8.99182 7.15 10.335 5.80686 10.335 4.15C10.335 2.49315 8.99182 1.15 7.33496 1.15C5.67811 1.15 4.33496 2.49315 4.33496 4.15C4.33496 5.80686 5.67811 7.15 7.33496 7.15Z" fill="black"/>
<path d="M8.22 15.91C8.05477 15.7466 7.94694 15.534 7.91269 15.3041C7.87844 15.0743 7.91959 14.8395 8.03 14.635L8.295 14.135L7.75 13.97C7.52776 13.9004 7.33427 13.7603 7.19892 13.5708C7.06356 13.3813 6.99372 13.1528 7 12.92V11.895C6.99958 11.6632 7.07373 11.4375 7.21149 11.2511C7.34925 11.0647 7.54331 10.9276 7.765 10.86L8.31 10.695L8.05 10.195C7.94283 9.99329 7.90205 9.76291 7.93347 9.53667C7.9649 9.31042 8.06692 9.09987 8.225 8.935C7.84033 8.88468 7.45294 8.85796 7.065 8.855C5.91916 8.82803 4.78149 9.05424 3.73312 9.51749C2.68475 9.98074 1.75153 10.6696 1 11.535V15.41C1 15.5426 1.05268 15.6698 1.14645 15.7636C1.24021 15.8573 1.36739 15.91 1.5 15.91H8.22Z" fill="black"/>
<path d="M16.8499 11.73L15.8499 11.43C15.7807 11.183 15.6834 10.9448 15.5599 10.72L16.0599 9.79C16.0792 9.75548 16.0863 9.71544 16.0799 9.67639C16.0736 9.63735 16.0542 9.60161 16.0249 9.575L15.2999 8.845C15.272 8.81782 15.2364 8.79989 15.1979 8.79363C15.1594 8.78737 15.12 8.79308 15.0849 8.81L14.1599 9.31C13.9323 9.18619 13.6927 9.08568 13.4449 9.01L13.1399 8.01C13.1265 7.97313 13.102 7.94132 13.0697 7.91893C13.0375 7.89655 12.9991 7.8847 12.9599 7.885H11.9199C11.8809 7.88609 11.8432 7.89915 11.8119 7.9224C11.7806 7.94566 11.7572 7.97799 11.7449 8.015L11.4449 9.015C11.1925 9.0891 10.9493 9.19142 10.7199 9.32L9.81488 8.82C9.7797 8.8013 9.73953 8.79414 9.70005 8.79952C9.66057 8.8049 9.62378 8.82256 9.59489 8.85L8.85988 9.57C8.83094 9.59789 8.81187 9.63445 8.80556 9.67414C8.79924 9.71384 8.80603 9.7545 8.82489 9.79L9.32489 10.7C9.1908 10.9258 9.08182 11.1655 8.99989 11.415L7.99989 11.72C7.96206 11.7309 7.92886 11.754 7.90538 11.7856C7.8819 11.8172 7.86943 11.8556 7.86989 11.895V12.92C7.86943 12.9594 7.8819 12.9978 7.90538 13.0294C7.92886 13.061 7.96206 13.0841 7.99989 13.095L8.99989 13.4C9.07488 13.6449 9.17543 13.8812 9.29989 14.105L8.79989 15.055C8.78103 15.0905 8.77425 15.1312 8.78056 15.1709C8.78688 15.2106 8.80594 15.2471 8.83489 15.275L9.57989 16C9.60878 16.0274 9.64557 16.0451 9.68505 16.0505C9.72453 16.0559 9.7647 16.0487 9.79989 16.03L10.7349 15.53C10.9572 15.65 11.1919 15.7455 11.4349 15.815L11.7349 16.84C11.7475 16.8778 11.7716 16.9107 11.8039 16.934C11.8362 16.9574 11.875 16.9699 11.9149 16.97H12.9399C12.9789 16.9689 13.0166 16.9559 13.0479 16.9326C13.0792 16.9093 13.1026 16.877 13.1149 16.84L13.4149 15.815C13.6548 15.746 13.8862 15.6504 14.1049 15.53L15.0499 16.03C15.0851 16.0487 15.1252 16.0559 15.1647 16.0505C15.2042 16.0451 15.241 16.0274 15.2699 16L15.9999 15.275C16.0273 15.2461 16.045 15.2093 16.0504 15.1698C16.0557 15.1304 16.0486 15.0902 16.0299 15.055L15.5299 14.115C15.6492 13.8958 15.7448 13.6645 15.8149 13.425L16.8149 13.12C16.8525 13.1079 16.8855 13.0847 16.9096 13.0535C16.9337 13.0222 16.9477 12.9844 16.9499 12.945V11.91C16.9511 11.8737 16.9424 11.8378 16.9248 11.8061C16.9072 11.7744 16.8813 11.7481 16.8499 11.73ZM12.4349 14.09C12.1044 14.091 11.781 13.9939 11.5057 13.811C11.2304 13.6281 11.0156 13.3676 10.8884 13.0626C10.7613 12.7575 10.7275 12.4216 10.7914 12.0973C10.8552 11.773 11.0139 11.475 11.2472 11.2409C11.4806 11.0069 11.7782 10.8473 12.1022 10.7825C12.4263 10.7176 12.7624 10.7504 13.0678 10.8766C13.3733 11.0029 13.6344 11.2169 13.8181 11.4917C14.0018 11.7664 14.0999 12.0895 14.0999 12.42C14.0999 12.862 13.9246 13.2861 13.6125 13.5991C13.3004 13.9121 12.8769 14.0887 12.4349 14.09Z" fill="#3D6498"/>
</g>
<defs>
<clipPath id="clip0_3114_231">
<rect width="18" height="18" fill="white"/>
</clipPath>
</defs>
</svg>
