<svg width="281" height="237" viewBox="0 0 281 237" fill="none" xmlns="http://www.w3.org/2000/svg">
<path d="M20.289 206.818L12.3948 232.832H33.7756L41.9096 206.955L20.289 206.818Z" fill="#263238" stroke="#263238" stroke-linecap="round" stroke-linejoin="round"/>
<path d="M70.1418 232.79H25.5878L20.2891 206.818H64.843L70.1418 232.79Z" fill="white" stroke="#263238" stroke-linecap="round" stroke-linejoin="round"/>
<path d="M65.5503 228.396H28.3871L25.6118 214.808H62.7751L65.5503 228.396Z" stroke="#263238" stroke-linecap="round" stroke-linejoin="round"/>
<path d="M28.8066 214.862L31.5579 228.336" stroke="#263238" stroke-linecap="round" stroke-linejoin="round"/>
<path d="M32.2173 214.862L34.9686 228.336" stroke="#263238" stroke-linecap="round" stroke-linejoin="round"/>
<path d="M35.6279 214.862L38.3792 228.336" stroke="#263238" stroke-linecap="round" stroke-linejoin="round"/>
<path d="M39.0325 214.862L41.7838 228.336" stroke="#263238" stroke-linecap="round" stroke-linejoin="round"/>
<path d="M42.4431 214.862L45.1944 228.336" stroke="#263238" stroke-linecap="round" stroke-linejoin="round"/>
<path d="M45.8538 214.862L48.605 228.336" stroke="#263238" stroke-linecap="round" stroke-linejoin="round"/>
<path d="M49.2583 214.862L52.0096 228.336" stroke="#263238" stroke-linecap="round" stroke-linejoin="round"/>
<path d="M52.6689 214.862L55.4202 228.336" stroke="#263238" stroke-linecap="round" stroke-linejoin="round"/>
<path d="M56.0735 214.862L58.8248 228.336" stroke="#263238" stroke-linecap="round" stroke-linejoin="round"/>
<path d="M59.4841 214.862L62.2354 228.336" stroke="#263238" stroke-linecap="round" stroke-linejoin="round"/>
<path d="M26.2471 217.493H63.2005" stroke="#263238" stroke-linecap="round" stroke-linejoin="round"/>
<path d="M26.7986 220.202H63.7521" stroke="#263238" stroke-linecap="round" stroke-linejoin="round"/>
<path d="M27.356 222.918H64.3034" stroke="#263238" stroke-linecap="round" stroke-linejoin="round"/>
<path d="M27.9075 225.627H64.8609" stroke="#263238" stroke-linecap="round" stroke-linejoin="round"/>
<path d="M41.8018 212.458H25.3001L25.0364 211.139H41.5321L41.8018 212.458Z" fill="#263238"/>
<path d="M266.987 166.382H213.244C210.715 166.442 208.291 167.404 206.409 169.094C204.527 170.785 203.312 173.092 202.982 175.601L196.389 233.881H259.326L266.987 166.382Z" fill="white" stroke="#263238" stroke-linecap="round" stroke-linejoin="round"/>
<path d="M267.269 166.382C265.168 166.431 263.153 167.231 261.59 168.635C260.027 170.04 259.018 171.958 258.745 174.042L251.966 233.881H267.275L274.06 174.042C274.2 173.077 274.127 172.094 273.848 171.16C273.569 170.226 273.089 169.365 272.442 168.636C271.796 167.906 270.998 167.327 270.104 166.937C269.211 166.548 268.243 166.358 267.269 166.382Z" fill="#263238" stroke="#263238" stroke-linecap="round" stroke-linejoin="round"/>
<path d="M195.831 148.873C192.054 151.57 187.972 153.811 183.669 155.55C176.039 158.727 172.97 159.686 172.97 159.686L175.086 232.694H230.483C230.483 232.694 223.38 186.917 223.38 171.555C223.38 156.192 224.016 153.195 224.016 153.195L205.794 148.531L195.831 148.873Z" fill="#CCE4F1" stroke="#263238" stroke-linecap="round" stroke-linejoin="round"/>
<path d="M189.789 151.948C188.062 164.348 187.037 176.835 186.72 189.351C186.403 208.106 190.005 233.108 190.005 233.108H149.419C154.466 223.56 158.076 213.32 160.131 202.718C163.128 187.535 165.525 161.796 166.161 161.478C166.796 161.161 188.309 153.195 189.789 151.948Z" fill="#263238" stroke="#263238" stroke-linecap="round" stroke-linejoin="round"/>
<path d="M171.357 233.114C171.357 233.114 167.222 205.139 167.431 198.57C167.641 192 168.684 169.75 168.684 169.75" stroke="#616161" stroke-linecap="round" stroke-linejoin="round"/>
<path d="M212.573 150.042C212.573 150.042 207.382 173.88 206.956 193.487C206.531 213.093 205.158 233.222 205.158 233.222H237.976C237.976 233.222 238.401 215.311 237.976 209.167C237.55 203.023 237.55 204.294 237.55 204.294L250.269 207.579C250.269 207.579 242.105 168.264 240.625 163.924C239.144 159.584 239.882 158.2 238.929 157.456C237.976 156.713 212.573 150.042 212.573 150.042Z" fill="#263238" stroke="#263238" stroke-linecap="round" stroke-linejoin="round"/>
<path d="M153.297 216.906C154.153 218.217 155.159 219.424 156.294 220.502C157.751 221.749 160.874 221.102 162.534 222.804C164.195 224.506 162.378 229.703 160.281 231.519C156.684 234.618 158.59 225.213 158.59 225.213C157.322 226.083 155.921 226.741 154.442 227.162C152.404 227.629 147.16 226.035 145.403 225.963C143.647 225.891 141.207 225.555 140.272 223.601C139.337 221.647 145.14 219.291 147.717 218.356C149.537 217.731 151.403 217.246 153.297 216.906Z" fill="white" stroke="#263238" stroke-linecap="round" stroke-linejoin="round"/>
<path d="M142.196 219.663C141.642 219.515 141.057 219.533 140.512 219.714C139.968 219.895 139.489 220.232 139.133 220.682C137.935 222.258 135.537 229.379 136.238 230.752C136.94 232.125 138.756 230.201 139.619 227.941C139.987 226.852 140.478 225.808 141.081 224.83C141.081 224.83 142.028 225.291 142.694 224.057C143.359 222.822 144.03 220.97 142.196 219.663Z" fill="white" stroke="#263238" stroke-linecap="round" stroke-linejoin="round"/>
<path d="M145.589 218.422C145.008 218.088 144.33 217.965 143.669 218.074C143.008 218.184 142.405 218.518 141.963 219.022C140.278 220.82 141.435 228.378 142.328 230.692C143.221 233.006 144.912 232.718 145.163 231.291C145.415 229.865 145.703 222.75 145.793 221.102C145.867 220.203 145.798 219.299 145.589 218.422Z" fill="white" stroke="#263238" stroke-linecap="round" stroke-linejoin="round"/>
<path d="M149.185 217.607C148.612 217.246 147.927 217.108 147.258 217.218C146.59 217.329 145.986 217.68 145.559 218.206C143.887 220.106 145.121 228.103 146.038 230.56C146.956 233.018 148.646 232.73 148.886 231.202C149.125 229.673 149.341 222.162 149.413 220.412C149.474 219.471 149.398 218.526 149.185 217.607Z" fill="white" stroke="#263238" stroke-linecap="round" stroke-linejoin="round"/>
<path d="M154.448 218.578C154.448 218.578 153.052 215.455 150.774 215.971C148.496 216.486 147.777 219.567 148.196 224.242C148.616 228.918 149.491 232.634 150.762 232.766C152.033 232.898 153.417 230.075 153.669 226.424C153.921 222.774 154.298 220.592 154.298 220.592" fill="white"/>
<path d="M154.448 218.578C154.448 218.578 153.052 215.455 150.774 215.971C148.496 216.486 147.777 219.567 148.196 224.242C148.616 228.918 149.491 232.634 150.762 232.766C152.033 232.898 153.417 230.075 153.669 226.424C153.921 222.774 154.298 220.592 154.298 220.592" stroke="#263238" stroke-linecap="round" stroke-linejoin="round"/>
<path d="M183.735 185.904H169.607V207.591H183.735V185.904Z" fill="#CCE4F1" stroke="#263238" stroke-linecap="round" stroke-linejoin="round"/>
<path d="M177.657 179.587H175.056V189.621H177.657V179.587Z" fill="white" stroke="#263238" stroke-linecap="round" stroke-linejoin="round"/>
<path d="M179.144 191.976H173.072V199.906H179.144V191.976Z" fill="white" stroke="#263238" stroke-linecap="round" stroke-linejoin="round"/>
<path d="M172.083 202.262H180.385" stroke="#263238" stroke-linecap="round" stroke-linejoin="round"/>
<path d="M170.842 203.994H181.5" stroke="#263238" stroke-linecap="round" stroke-linejoin="round"/>
<path d="M194.351 145.804C194.351 145.804 189.789 148.873 188.956 151.312C188.123 153.752 184.61 164.134 183.232 168.054C181.853 171.974 174.013 175.367 175.074 176.11C176.135 176.853 186.414 177.8 186.414 177.8C186.414 177.8 188.746 186.917 189.274 189.249C189.801 191.581 192.984 198.678 192.984 198.678C192.984 198.678 202.413 187.337 203.899 184.292C204.92 182.233 206.088 180.25 207.394 178.358C207.394 178.358 211.422 179.311 213.987 179.736C216.553 180.162 223.524 180.791 223.206 179.629C222.888 178.466 219.394 173.377 218.015 168.396C216.637 163.415 217.482 152.499 215.791 148.262C214.101 144.024 210.397 143.388 209.114 143.071C207.831 142.753 196.257 144 194.351 145.804Z" fill="#CCE4F1" stroke="#263238" stroke-linecap="round" stroke-linejoin="round"/>
<path d="M192.864 142.519C192.864 142.519 194.243 150.252 194.063 156.503C193.883 162.755 191.623 176.745 191.731 183.95C191.839 188.736 192.227 193.512 192.894 198.252C192.894 198.252 203.282 183.95 207.094 172.292C210.906 160.633 211.967 150.677 211.967 149.934C211.967 149.191 212.177 131.922 212.177 131.922C212.177 131.922 201.13 143.472 192.864 142.519Z" fill="white" stroke="#263238" stroke-linecap="round" stroke-linejoin="round"/>
<path d="M212.063 139.252C212.105 135.368 212.147 131.922 212.147 131.922C212.147 131.922 201.13 143.472 192.864 142.519C192.864 142.519 193.254 144.695 193.584 147.674C194.665 148.415 195.865 148.964 197.132 149.298C200.956 150.066 205.242 147.926 208.149 144.251C209.222 142.897 210.643 141.051 212.063 139.252Z" fill="#263238" stroke="#263238" stroke-linecap="round" stroke-linejoin="round"/>
<path d="M219.622 104.157C225.445 104.157 230.165 99.4849 230.165 93.7214C230.165 87.958 225.445 83.2857 219.622 83.2857C213.799 83.2857 209.078 87.958 209.078 93.7214C209.078 99.4849 213.799 104.157 219.622 104.157Z" fill="#263238" stroke="#263238" stroke-linecap="round" stroke-linejoin="round"/>
<path d="M176.926 111.955C176.926 111.955 171.268 110.421 170.333 107.364C169.398 104.307 172.784 93.5776 183.801 88.081C194.818 82.5844 204.924 85.6294 209.36 86.8522C213.796 88.075 217.014 90.3767 219.922 98.4867C222.829 106.597 222.979 112.873 222.061 115.929C221.516 117.757 220.851 119.547 220.071 121.288C220.071 121.288 214.413 121.888 212.879 119.604C211.344 117.32 211.961 105.817 205.38 103.078C198.798 100.339 186.253 101.879 183.202 104.607C180.151 107.334 176.926 111.955 176.926 111.955Z" fill="#263238" stroke="#263238" stroke-linecap="round" stroke-linejoin="round"/>
<path d="M176.009 109.965C176.009 109.965 177.387 118.687 177.387 123.428C177.387 128.169 181.212 134.757 183.202 136.615C185.192 138.473 191.773 144.725 195.597 145.492C199.422 146.259 203.707 144.114 206.615 140.439C209.522 136.765 215.186 129.422 215.186 129.422C216.449 129.563 217.722 129.258 218.783 128.559C219.845 127.861 220.629 126.813 221 125.598C222.535 121.156 221.768 116.109 219.166 115.498C216.565 114.887 214.731 117.943 214.731 117.943C214.731 117.943 212.585 109.684 209.833 105.548L205.853 99.5537L210.93 93.2059C210.986 93.137 211.026 93.0574 211.05 92.972C211.073 92.8867 211.079 92.7975 211.067 92.7098C211.054 92.6222 211.024 92.538 210.978 92.4625C210.932 92.387 210.871 92.3218 210.798 92.2709C210.662 92.173 210.493 92.1315 210.327 92.155C210.16 92.1784 210.009 92.265 209.905 92.3967L204.936 98.7924C204.936 98.7924 195.142 97.1081 186.57 101.394C177.999 105.68 176.009 109.965 176.009 109.965Z" fill="white" stroke="#263238" stroke-linecap="round" stroke-linejoin="round"/>
<path d="M207.454 118.579L206.075 120.419" stroke="#263238" stroke-linecap="round" stroke-linejoin="round"/>
<path d="M188.561 129.092C188.561 129.092 188.866 130.01 190.856 130.471C191.785 130.687 192.756 130.629 193.652 130.303C194.548 129.977 195.33 129.399 195.903 128.637" stroke="#263238" stroke-linecap="round" stroke-linejoin="round"/>
<path d="M190.862 134.014C192.749 134.439 194.715 134.367 196.565 133.804C198.416 133.24 200.088 132.206 201.418 130.801C201.418 130.801 200.045 136.615 197.288 137.688C194.531 138.761 194.381 135.848 194.381 135.848L190.862 134.014Z" stroke="#263238" stroke-linecap="round" stroke-linejoin="round"/>
<path d="M196.365 122.361C197.633 121.167 199.176 120.305 200.858 119.851C202.539 119.397 204.307 119.366 206.003 119.76" stroke="#263238" stroke-width="2" stroke-linecap="round" stroke-linejoin="round"/>
<path d="M186.415 122.055C186.415 122.055 183.052 118.687 179.527 120.521" stroke="#263238" stroke-width="2" stroke-linecap="round" stroke-linejoin="round"/>
<path d="M178.46 119.76L180.139 121.444" stroke="#263238" stroke-linecap="round" stroke-linejoin="round"/>
<path d="M195.292 114.095C195.292 114.095 199.853 108.838 206.447 113.79" stroke="#263238" stroke-linecap="round" stroke-linejoin="round"/>
<path d="M186.109 113.939C186.109 113.939 181.979 110.727 177.843 114.401" stroke="#263238" stroke-linecap="round" stroke-linejoin="round"/>
<path d="M199.967 121.54C199.973 121.689 199.934 121.837 199.854 121.964C199.775 122.09 199.659 122.19 199.522 122.25C199.385 122.31 199.234 122.327 199.087 122.3C198.94 122.272 198.805 122.201 198.699 122.095C198.593 121.989 198.522 121.854 198.494 121.707C198.466 121.56 198.484 121.408 198.544 121.271C198.603 121.134 198.703 121.019 198.83 120.939C198.957 120.86 199.104 120.821 199.254 120.827C199.441 120.834 199.618 120.912 199.75 121.044C199.882 121.176 199.96 121.353 199.967 121.54Z" fill="#263238"/>
<path d="M182.47 120.899C182.472 121.046 182.429 121.19 182.348 121.313C182.267 121.436 182.151 121.532 182.016 121.59C181.88 121.647 181.73 121.662 181.586 121.634C181.441 121.606 181.308 121.536 181.204 121.432C181.099 121.329 181.028 121.196 180.999 121.052C180.969 120.907 180.984 120.758 181.04 120.622C181.096 120.485 181.191 120.369 181.314 120.287C181.436 120.205 181.58 120.161 181.727 120.161C181.923 120.161 182.111 120.239 182.251 120.377C182.39 120.515 182.469 120.702 182.47 120.899Z" fill="#263238"/>
<path d="M218.633 105.973C218.633 105.973 219.16 112.861 217.889 118.051L219.903 118.687C219.903 118.687 221.492 110.739 220.749 106.291L218.633 105.973Z" fill="#CCE4F1" stroke="#263238" stroke-linecap="round" stroke-linejoin="round"/>
<path d="M204.942 85.8272C207.158 86.9329 209.133 88.4668 210.752 90.3404C212.372 92.2139 213.604 94.3899 214.377 96.7424C216.811 104.583 216.493 107.022 217.974 107.867C219.454 108.713 222.319 109.246 222.421 107.34C222.523 105.434 221.864 96.9283 217.626 91.6535C214.449 87.6374 207.592 85.9351 204.942 85.8272Z" fill="#CCE4F1" stroke="#263238" stroke-linecap="round" stroke-linejoin="round"/>
<path d="M219.472 116.535C216.421 115.6 213.07 117.734 211.979 121.276C210.972 124.555 212.255 127.9 214.857 129.134C212.947 133.988 210.106 138.42 206.495 142.184C205.792 142.097 205.082 142.277 204.505 142.687C203.414 143.424 202.934 144.629 203.444 145.384C203.953 146.14 205.242 146.152 206.339 145.42C207.436 144.689 207.825 143.622 207.478 142.891C211.17 139.037 214.067 134.493 216.001 129.518C218.915 130.117 221.995 128.032 223.02 124.657C224.111 121.108 222.523 117.47 219.472 116.535Z" fill="#CCE4F1" stroke="#263238" stroke-linecap="round" stroke-linejoin="round"/>
<path d="M222.061 123.464C221.546 125.73 219.502 127.204 217.494 126.749C215.486 126.293 214.275 124.081 214.791 121.816C215.306 119.55 217.35 118.075 219.358 118.525C221.366 118.974 222.577 121.192 222.061 123.464Z" fill="#CCE4F1" stroke="#263238" stroke-linecap="round" stroke-linejoin="round"/>
<path d="M221.474 160.849C221.474 160.849 218.507 153.434 217.877 152.056C217.248 150.677 222.433 142.519 223.272 141.35C224.111 140.182 225.706 137.754 225.706 137.22C225.706 136.687 219.67 130.753 218.393 129.8C217.116 128.847 215.006 130.999 215.006 130.999C215.006 130.999 209.498 138.311 209.498 139.157C209.498 140.002 212.141 142.651 212.141 142.651C212.141 142.651 208.011 148.585 208.545 150.917C209.078 153.249 211.194 155.263 211.194 155.263L214.161 166.705L221.474 160.849Z" fill="white" stroke="#263238" stroke-linecap="round" stroke-linejoin="round"/>
<path d="M212.147 142.621C212.147 142.621 215.744 139.762 215.432 138.917C215.308 138.666 215.11 138.46 214.864 138.326C214.618 138.193 214.337 138.14 214.059 138.173" stroke="#263238" stroke-linecap="round" stroke-linejoin="round"/>
<path d="M214.695 131.922C215.012 131.922 224.333 138.066 224.123 139.115C223.938 139.889 223.654 140.636 223.278 141.338" stroke="#263238" stroke-linecap="round" stroke-linejoin="round"/>
<path d="M215.756 130.969C215.756 130.969 224.549 136.477 224.747 137.43C224.786 137.743 224.749 138.061 224.638 138.357C224.528 138.652 224.347 138.916 224.111 139.127" stroke="#263238" stroke-linecap="round" stroke-linejoin="round"/>
<path d="M216.709 130.016C216.709 130.016 225.928 136.267 225.7 137.208C225.447 137.98 225.053 138.697 224.537 139.324" stroke="#263238" stroke-linecap="round" stroke-linejoin="round"/>
<path d="M222.745 160.004L208.545 168.18C208.545 168.18 226.982 212.044 230.375 217.979C233.768 223.913 242.879 225.291 247.65 223.703C252.421 222.115 254.747 212.578 253.159 208.55C251.57 204.522 240.121 186.917 234.619 178.118C229.116 169.319 222.745 160.004 222.745 160.004Z" fill="#263238" stroke="#263238" stroke-linecap="round" stroke-linejoin="round"/>
<path d="M215.24 183.165C215.24 183.165 230.825 213.135 234.817 219.129" stroke="#616161" stroke-linecap="round" stroke-linejoin="round"/>
<path d="M224.027 163.558L246.008 197.125" stroke="#616161" stroke-linecap="round" stroke-linejoin="round"/>
<path d="M161.701 120.143V100.848C161.701 100.104 161.406 99.3909 160.88 98.8648C160.353 98.3387 159.64 98.0432 158.896 98.0432H111.836C111.092 98.0432 110.379 98.3387 109.853 98.8648C109.327 99.3909 109.031 100.104 109.031 100.848V120.143C109.031 120.887 109.327 121.601 109.853 122.127C110.379 122.653 111.092 122.949 111.836 122.949H152.249L161.449 131.802L159.609 122.847C160.207 122.689 160.736 122.339 161.115 121.85C161.493 121.362 161.699 120.761 161.701 120.143Z" fill="white" stroke="#263238" stroke-linecap="round" stroke-linejoin="round"/>
<path d="M126.072 112.219C127.234 112.219 128.176 111.277 128.176 110.115C128.176 108.953 127.234 108.011 126.072 108.011C124.91 108.011 123.969 108.953 123.969 110.115C123.969 111.277 124.91 112.219 126.072 112.219Z" fill="#263238"/>
<path d="M135.363 112.219C136.525 112.219 137.467 111.277 137.467 110.115C137.467 108.953 136.525 108.011 135.363 108.011C134.201 108.011 133.259 108.953 133.259 110.115C133.259 111.277 134.201 112.219 135.363 112.219Z" fill="#263238"/>
<path d="M144.66 112.219C145.822 112.219 146.764 111.277 146.764 110.115C146.764 108.953 145.822 108.011 144.66 108.011C143.498 108.011 142.556 108.953 142.556 110.115C142.556 111.277 143.498 112.219 144.66 112.219Z" fill="#263238"/>
<path d="M116.674 119.7V115.384L112.136 114.377C111.889 113.501 111.541 112.656 111.099 111.859L113.587 107.939L110.542 104.888L106.622 107.382C105.829 106.936 104.986 106.588 104.11 106.345L103.097 101.807H98.7813L97.7743 106.345C96.8961 106.587 96.0506 106.935 95.2568 107.382L91.3607 104.888L88.3097 107.939L90.7613 111.836C90.3144 112.629 89.9661 113.475 89.7243 114.353L85.1868 115.36V119.676L89.7243 120.689C89.9654 121.573 90.3137 122.424 90.7613 123.224L88.2677 127.144L91.3187 130.195L95.2388 127.702C96.0337 128.148 96.8788 128.498 97.7563 128.745L98.7634 133.276H103.079L104.092 128.745C104.967 128.497 105.81 128.147 106.604 127.702L110.524 130.195L113.575 127.144L111.099 123.224C111.54 122.43 111.888 121.587 112.136 120.713L116.674 119.7ZM100.951 123.116C99.8487 123.116 98.7709 122.789 97.8542 122.177C96.9374 121.564 96.2229 120.694 95.801 119.675C95.3791 118.657 95.2687 117.536 95.4838 116.454C95.6989 115.373 96.2298 114.38 97.0094 113.6C97.789 112.82 98.7823 112.29 99.8637 112.074C100.945 111.859 102.066 111.97 103.084 112.392C104.103 112.814 104.974 113.528 105.586 114.445C106.199 115.362 106.526 116.439 106.526 117.542C106.526 118.274 106.381 118.999 106.101 119.675C105.821 120.351 105.411 120.966 104.893 121.484C104.375 122.001 103.761 122.412 103.084 122.692C102.408 122.972 101.683 123.116 100.951 123.116Z" fill="#263238" stroke="#263238" stroke-linecap="round" stroke-linejoin="round"/>
<path d="M78.6353 233.06H177.777V229.062H78.6353V233.06Z" fill="white" stroke="#263238" stroke-linecap="round" stroke-linejoin="round"/>
<path d="M63.4102 233.06H149.821V229.062H63.4102V233.06Z" fill="white" stroke="#263238" stroke-linecap="round" stroke-linejoin="round"/>
<path d="M61.7379 221.947H144.408L135.495 158.835H52.8247L61.7379 221.947Z" fill="white" stroke="#263238" stroke-linecap="round" stroke-linejoin="round"/>
<path d="M58.3153 221.947H140.986L132.072 158.835H49.4021L58.3153 221.947Z" fill="#263238" stroke="#263238" stroke-linecap="round" stroke-linejoin="round"/>
<path d="M83.6464 192.612L75.3506 233.06H96.6835L104.979 192.612H83.6464ZM98.1161 204.6C98.0814 204.77 97.989 204.922 97.8546 205.031C97.7202 205.141 97.552 205.2 97.3788 205.199L85.2948 205.079C85.1816 205.078 85.0703 205.051 84.9689 205.001C84.8675 204.951 84.7787 204.878 84.7091 204.789C84.6395 204.7 84.5908 204.596 84.5666 204.485C84.5424 204.375 84.5434 204.26 84.5695 204.15L85.6604 199.613C85.695 199.443 85.7874 199.291 85.9219 199.181C86.0563 199.072 86.2244 199.013 86.3977 199.013L98.4877 199.127C98.6003 199.13 98.711 199.157 98.8117 199.208C98.9123 199.258 99.0003 199.331 99.0693 199.42C99.1382 199.509 99.1864 199.612 99.2102 199.723C99.2341 199.833 99.233 199.947 99.207 200.056L98.1161 204.6Z" fill="white" stroke="#263238" stroke-linecap="round" stroke-linejoin="round"/>
<path d="M1 235.961L280.024 235.961V233.06L1 233.06V235.961Z" fill="#263238" stroke="#263238" stroke-linecap="round" stroke-linejoin="round"/>
</svg>
