<svg width="21" height="22" viewBox="0 0 21 22" fill="none" xmlns="http://www.w3.org/2000/svg">
<path d="M20 5.5H17V1.5C17 0.9 16.6 0.5 16 0.5H5C4.4 0.5 4 0.9 4 1.5V5.5H1C0.4 5.5 0 5.9 0 6.5V20.5C0 21.1 0.4 21.5 1 21.5H20C20.6 21.5 21 21.1 21 20.5V6.5C21 5.9 20.6 5.5 20 5.5ZM6 17.5H5C4.4 17.5 4 17.1 4 16.5C4 15.9 4.4 15.5 5 15.5H6C6.6 15.5 7 15.9 7 16.5C7 17.1 6.6 17.5 6 17.5ZM6 13.5H5C4.4 13.5 4 13.1 4 12.5C4 11.9 4.4 11.5 5 11.5H6C6.6 11.5 7 11.9 7 12.5C7 13.1 6.6 13.5 6 13.5ZM11 17.5H10C9.4 17.5 9 17.1 9 16.5C9 15.9 9.4 15.5 10 15.5H11C11.6 15.5 12 15.9 12 16.5C12 17.1 11.6 17.5 11 17.5ZM11 13.5H10C9.4 13.5 9 13.1 9 12.5C9 11.9 9.4 11.5 10 11.5H11C11.6 11.5 12 11.9 12 12.5C12 13.1 11.6 13.5 11 13.5ZM12 8H11.5V8.5C11.5 9.1 11.1 9.5 10.5 9.5C9.9 9.5 9.5 9.1 9.5 8.5V8H9C8.4 8 8 7.6 8 7C8 6.4 8.4 6 9 6H9.5V5.5C9.5 4.9 9.9 4.5 10.5 4.5C11.1 4.5 11.5 4.9 11.5 5.5V6H12C12.6 6 13 6.4 13 7C13 7.6 12.6 8 12 8ZM16 17.5H15C14.4 17.5 14 17.1 14 16.5C14 15.9 14.4 15.5 15 15.5H16C16.6 15.5 17 15.9 17 16.5C17 17.1 16.6 17.5 16 17.5ZM16 13.5H15C14.4 13.5 14 13.1 14 12.5C14 11.9 14.4 11.5 15 11.5H16C16.6 11.5 17 11.9 17 12.5C17 13.1 16.6 13.5 16 13.5Z" fill="black"/>
</svg>
