<svg width="30" height="30" viewBox="0 0 30 30" fill="none" xmlns="http://www.w3.org/2000/svg">
<path opacity="0.15" d="M2.1875 28.4375C2.1875 28.6861 3.53738 28.9246 5.94019 29.1004C8.343 29.2762 11.6019 29.375 15 29.375C18.3981 29.375 21.657 29.2762 24.0598 29.1004C26.4626 28.9246 27.8125 28.6861 27.8125 28.4375C27.8125 28.1889 26.4626 27.9504 24.0598 27.7746C21.657 27.5988 18.3981 27.5 15 27.5C11.6019 27.5 8.343 27.5988 5.94019 27.7746C3.53738 27.9504 2.1875 28.1889 2.1875 28.4375Z" fill="#45413C"/>
<path d="M2.5 9.375H27.5V11.25H2.5V9.375Z" fill="#8CA4B8"/>
<path d="M26.875 9.375H3.12502C2.95926 9.375 2.80029 9.44085 2.68308 9.55806C2.56587 9.67527 2.50002 9.83424 2.50002 10V10.625C2.49348 10.6769 2.49348 10.7294 2.50002 10.7812C2.53545 10.6437 2.61665 10.5224 2.73025 10.4372C2.84386 10.352 2.98309 10.308 3.12502 10.3125H26.875C27.017 10.308 27.1562 10.352 27.2698 10.4372C27.3834 10.5224 27.4646 10.6437 27.5 10.7812C27.5066 10.7294 27.5066 10.6769 27.5 10.625V10C27.5 9.83424 27.4342 9.67527 27.317 9.55806C27.1998 9.44085 27.0408 9.375 26.875 9.375Z" fill="#ADC4D9"/>
<path d="M2.5 9.375H27.5V11.25H2.5V9.375Z" stroke="#45413C" stroke-width="0.5" stroke-linecap="round" stroke-linejoin="round"/>
<path d="M3.125 11.25H26.875V27.1875C26.875 27.3533 26.8092 27.5122 26.6919 27.6294C26.5747 27.7467 26.4158 27.8125 26.25 27.8125H3.75C3.58424 27.8125 3.42527 27.7467 3.30806 27.6294C3.19085 27.5122 3.125 27.3533 3.125 27.1875V11.25Z" fill="white"/>
<path d="M3.125 11.25H26.875V12.6562H3.125V11.25Z" fill="#E0E0E0"/>
<path d="M3.125 11.25H26.875V27.1875C26.875 27.3533 26.8092 27.5122 26.6919 27.6294C26.5747 27.7467 26.4158 27.8125 26.25 27.8125H3.75C3.58424 27.8125 3.42527 27.7467 3.30806 27.6294C3.19085 27.5122 3.125 27.3533 3.125 27.1875V11.25Z" stroke="#45413C" stroke-width="0.5" stroke-linecap="round" stroke-linejoin="round"/>
<path d="M8.4375 7.8125H21.5625V27.8125H8.4375V7.8125Z" fill="white"/>
<path d="M8.4375 7.8125H21.5625V8.93125H8.4375V7.8125Z" fill="#E0E0E0"/>
<path d="M8.4375 7.8125H21.5625V27.8125H8.4375V7.8125Z" stroke="#45413C" stroke-width="0.5" stroke-linecap="round" stroke-linejoin="round"/>
<path d="M11.25 20.9375H18.75V27.8125H11.25V20.9375Z" fill="#00B8F0"/>
<path d="M12.775 27.8125H16.025L18.75 21.2063V20.9375H15.6063L12.775 27.8125Z" fill="#4ACFFF"/>
<path d="M11.25 20.9375H18.75V27.8125H11.25V20.9375Z" stroke="#45413C" stroke-width="0.5" stroke-linecap="round" stroke-linejoin="round"/>
<path d="M10.625 18.75H19.375V20.9375H10.625V18.75Z" fill="#8CA4B8"/>
<path d="M18.7501 18.75H11.2501C11.0843 18.75 10.9253 18.8158 10.8081 18.9331C10.6909 19.0503 10.6251 19.2092 10.6251 19.375V20.3125C10.6221 20.3374 10.6221 20.3626 10.6251 20.3875C10.6449 20.2362 10.7194 20.0974 10.8345 19.9972C10.9497 19.897 11.0975 19.8425 11.2501 19.8438H18.7501C18.9027 19.8425 19.0505 19.897 19.1656 19.9972C19.2807 20.0974 19.3552 20.2362 19.3751 20.3875C19.3781 20.3626 19.3781 20.3374 19.3751 20.3125V19.375C19.3751 19.2092 19.3092 19.0503 19.192 18.9331C19.0748 18.8158 18.9158 18.75 18.7501 18.75Z" fill="#ADC4D9"/>
<path d="M10.625 18.75H19.375V20.9375H10.625V18.75Z" stroke="#45413C" stroke-width="0.5" stroke-linecap="round" stroke-linejoin="round"/>
<path d="M7.8125 5.9375H22.1875V7.8125H7.8125V5.9375Z" fill="#8CA4B8"/>
<path d="M21.5625 5.9375H8.4375C8.27174 5.9375 8.11277 6.00335 7.99556 6.12056C7.87835 6.23777 7.8125 6.39674 7.8125 6.5625V7.1875C7.81621 7.2407 7.82671 7.29321 7.84375 7.34375C7.87788 7.21146 7.95442 7.094 8.06165 7.00934C8.16888 6.92469 8.3009 6.8775 8.4375 6.875H21.5625C21.7044 6.87051 21.8437 6.91449 21.9573 6.99969C22.0709 7.08489 22.1521 7.20624 22.1875 7.34375C22.194 7.29187 22.194 7.23938 22.1875 7.1875V6.5625C22.1875 6.39674 22.1217 6.23777 22.0044 6.12056C21.8872 6.00335 21.7283 5.9375 21.5625 5.9375Z" fill="#ADC4D9"/>
<path d="M7.8125 5.9375H22.1875V7.8125H7.8125V5.9375Z" stroke="#45413C" stroke-width="0.5" stroke-linecap="round" stroke-linejoin="round"/>
<path d="M17.1875 11.875H16.25C16.1671 11.875 16.0876 11.8421 16.029 11.7835C15.9704 11.7249 15.9375 11.6454 15.9375 11.5625V10.625C15.9375 10.5421 15.9046 10.4626 15.846 10.404C15.7874 10.3454 15.7079 10.3125 15.625 10.3125H14.375C14.2921 10.3125 14.2126 10.3454 14.154 10.404C14.0954 10.4626 14.0625 10.5421 14.0625 10.625V11.5625C14.0625 11.6454 14.0296 11.7249 13.971 11.7835C13.9124 11.8421 13.8329 11.875 13.75 11.875H12.8125C12.7296 11.875 12.6501 11.9079 12.5915 11.9665C12.5329 12.0251 12.5 12.1046 12.5 12.1875V13.4375C12.5 13.5204 12.5329 13.5999 12.5915 13.6585C12.6501 13.7171 12.7296 13.75 12.8125 13.75H13.75C13.8329 13.75 13.9124 13.7829 13.971 13.8415C14.0296 13.9001 14.0625 13.9796 14.0625 14.0625V15C14.0625 15.0829 14.0954 15.1624 14.154 15.221C14.2126 15.2796 14.2921 15.3125 14.375 15.3125H15.625C15.7079 15.3125 15.7874 15.2796 15.846 15.221C15.9046 15.1624 15.9375 15.0829 15.9375 15V14.0625C15.9375 13.9796 15.9704 13.9001 16.029 13.8415C16.0876 13.7829 16.1671 13.75 16.25 13.75H17.1875C17.2704 13.75 17.3499 13.7171 17.4085 13.6585C17.4671 13.5999 17.5 13.5204 17.5 13.4375V12.1875C17.5 12.1046 17.4671 12.0251 17.4085 11.9665C17.3499 11.9079 17.2704 11.875 17.1875 11.875Z" fill="#FF6242" stroke="#45413C" stroke-width="0.5" stroke-linecap="round" stroke-linejoin="round"/>
<path d="M5 12.8125H6.5625V15.625H5V12.8125Z" fill="#00B8F0"/>
<path d="M5.31245 15.625H6.24995C6.33283 15.625 6.41232 15.5921 6.47092 15.5335C6.52953 15.4749 6.56245 15.3954 6.56245 15.3125V13.125C6.56066 13.0567 6.53651 12.9908 6.4937 12.9375L5.1062 15.5438C5.16271 15.5951 5.23608 15.624 5.31245 15.625Z" fill="#4ACFFF"/>
<path d="M5 17.1875H6.5625V20H5V17.1875Z" fill="#00B8F0"/>
<path d="M5.31245 20H6.24995C6.33283 20 6.41232 19.9671 6.47092 19.9085C6.52953 19.8499 6.56245 19.7704 6.56245 19.6875V17.5C6.56066 17.4317 6.53651 17.3658 6.4937 17.3125L5.1062 19.9188C5.16271 19.9701 5.23608 19.999 5.31245 20Z" fill="#4ACFFF"/>
<path d="M5 21.5625H6.5625V24.375H5V21.5625Z" fill="#00B8F0"/>
<path d="M5.31245 24.375H6.24995C6.33283 24.375 6.41232 24.3421 6.47092 24.2835C6.52953 24.2249 6.56245 24.1454 6.56245 24.0625V21.875C6.56066 21.8067 6.53651 21.7408 6.4937 21.6875L5.1062 24.2937C5.16271 24.3451 5.23608 24.374 5.31245 24.375Z" fill="#4ACFFF"/>
<path d="M5 12.8125H6.5625V15.625H5V12.8125ZM5 17.1875H6.5625V20H5V17.1875ZM5 21.5625H6.5625V24.375H5V21.5625Z" stroke="#45413C" stroke-width="0.5" stroke-linecap="round" stroke-linejoin="round"/>
<path d="M23.4375 12.8125H25V15.625H23.4375V12.8125Z" fill="#00B8F0"/>
<path d="M23.75 15.625H24.6875C24.7703 15.625 24.8498 15.5921 24.9084 15.5335C24.967 15.4749 25 15.3954 25 15.3125V13.125C24.9982 13.0567 24.974 12.9908 24.9312 12.9375L23.5437 15.5438C23.6002 15.5951 23.6736 15.624 23.75 15.625Z" fill="#4ACFFF"/>
<path d="M23.4375 17.1875H25V20H23.4375V17.1875Z" fill="#00B8F0"/>
<path d="M23.75 20H24.6875C24.7703 20 24.8498 19.9671 24.9084 19.9085C24.967 19.8499 25 19.7704 25 19.6875V17.5C24.9982 17.4317 24.974 17.3658 24.9312 17.3125L23.5437 19.9188C23.6002 19.9701 23.6736 19.999 23.75 20Z" fill="#4ACFFF"/>
<path d="M23.4375 21.5625H25V24.375H23.4375V21.5625Z" fill="#00B8F0"/>
<path d="M23.75 24.375H24.6875C24.7703 24.375 24.8498 24.3421 24.9084 24.2835C24.967 24.2249 25 24.1454 25 24.0625V21.875C24.9982 21.8067 24.974 21.7408 24.9312 21.6875L23.5437 24.2937C23.6002 24.3451 23.6736 24.374 23.75 24.375Z" fill="#4ACFFF"/>
<path d="M15 20.9375V27.8125M23.4375 12.8125H25V15.625H23.4375V12.8125ZM23.4375 17.1875H25V20H23.4375V17.1875ZM23.4375 21.5625H25V24.375H23.4375V21.5625Z" stroke="#45413C" stroke-width="0.5" stroke-linecap="round" stroke-linejoin="round"/>
</svg>
